Patient4_TMGait_0pt5_02_left_39_GRF.mot
version=1
nRows=26
nColumns=19
inDegrees=no
endheader
time	F1x	F1y	F1z	M1x	M1y	M1z	F2x	F2y	F2z	M2x	M2y	M2z	EC1x	EC1y	EC1z	EC2x	EC2y	EC2z
50.28	-13.2068	12.6603	-9.5611	-2.2887	3.3811	19.642	-35.4701	724.6901	-65.7354	288.4791	80.6834	732.8901	-0.0592	0.0182	-0.0073	-0.0462	0.0165	0.9585
50.2929	-8.9317	9.2217	-6.3413	-1.7906	2.1738	13.926	-31.0302	724.6551	-63.5902	286.8512	75.8181	727.4567	-0.0592	0.0182	-0.0073	-0.0462	0.0165	0.9585
50.3057	-5.3271	6.3035	-3.6317	-1.3669	1.1522	9.102	-26.2863	723.9519	-61.1822	285.2683	70.5982	720.9301	-0.0592	0.0182	-0.0073	-0.0462	0.0165	0.9585
50.3186	-2.5877	4.0737	-1.5668	-1.0449	0.36287	5.4302	-21.4735	723.3049	-58.7181	284.0963	65.3764	714.259	-0.0592	0.0182	-0.0073	-0.0462	0.0165	0.9585
50.3314	-0.70719	2.5392	-0.14439	-0.82978	-0.19242	2.9153	-16.753	723.5712	-56.3999	283.6567	60.4368	708.4318	-0.0592	0.0182	-0.0073	-0.0462	0.0165	0.9585
50.3443	0.43412	1.5945	0.73842	-0.70507	-0.55555	1.3821	-12.2691	725.4177	-54.411	284.1443	56.0115	704.2024	-0.0592	0.0182	-0.0073	-0.0462	0.0165	0.9585
50.3571	1.0109	1.0841	1.2069	-0.64285	-0.76736	0.57517	-8.1146	729.1638	-52.8614	285.6011	52.2267	701.9317	-0.0592	0.0182	-0.0073	-0.0462	0.0165	0.9585
50.37	1.1757	0.8534	1.3921	-0.61381	-0.87989	0.2521	-4.3615	734.7793	-51.8141	287.9293	49.1515	701.6352	-0.0592	0.0182	-0.0073	-0.0462	0.0165	0.9585
50.3829	1.0863	0.73009	1.4065	-0.5815	-0.93384	0.14737	-1.0803	741.8814	-51.2557	290.9094	46.7828	702.9809	-0.0592	0.0182	-0.0073	-0.0462	0.0165	0.9585
50.3957	0.83171	0.57395	1.3324	-0.5119	-0.96765	0.074545	1.6708	749.82	-51.131	294.2325	45.0762	705.3721	-0.0592	0.0182	-0.0073	-0.0462	0.0165	0.9585
50.4086	0.51948	0.2497	1.2339	-0.36879	-1.0028	-0.16649	3.8815	757.7723	-51.3434	297.5352	43.9337	708.0451	-0.0592	0.0182	-0.0073	-0.0462	0.0165	0.9585
50.4214	0.20145	-0.34652	1.1395	-0.12097	-1.0444	-0.70132	5.5943	764.8125	-51.7817	300.4297	43.2262	710.1336	-0.0592	0.0182	-0.0073	-0.0462	0.0165	0.9585
50.4343	-0.041004	-1.3112	1.0702	0.25876	-1.0824	-1.6564	6.9137	770.0504	-52.3181	302.5579	42.7947	710.789	-0.0592	0.0182	-0.0073	-0.0462	0.0165	0.9585
50.4471	-0.13825	-2.6697	1.0175	0.77832	-1.0817	-3.0628	7.9931	772.7914	-52.8065	303.6465	42.4491	709.3416	-0.0592	0.0182	-0.0073	-0.0462	0.0165	0.9585
50.46	-0.011098	-4.354	0.96653	1.4137	-0.9931	-4.8509	8.9885	772.5873	-53.1327	303.5249	42.0198	705.3429	-0.0592	0.0182	-0.0073	-0.0462	0.0165	0.9585
50.4729	0.45117	-6.1434	0.88554	2.0851	-0.7417	-6.7954	10.0354	769.3136	-53.2418	302.1497	41.3967	698.6573	-0.0592	0.0182	-0.0073	-0.0462	0.0165	0.9585
50.4857	1.3539	-7.617	0.73826	2.6386	-0.2434	-8.4343	11.2402	763.2272	-53.1544	299.6261	40.5496	689.5055	-0.0592	0.0182	-0.0073	-0.0462	0.0165	0.9585
50.4986	2.8514	-8.1032	0.47274	2.8251	0.60822	-9.0435	12.6614	754.9685	-52.9427	296.2059	39.5144	678.4657	-0.0592	0.0182	-0.0073	-0.0462	0.0165	0.9585
50.5114	5.019	-6.5918	0.034762	2.2753	1.8959	-7.5021	14.3243	745.4487	-52.7067	292.2444	38.3693	666.3681	-0.0592	0.0182	-0.0073	-0.0462	0.0165	0.9585
50.5243	7.8839	-1.751	-0.62831	0.50073	3.675	-2.3686	16.2192	735.6312	-52.5322	288.116	37.1982	654.0913	-0.0592	0.0182	-0.0073	-0.0462	0.0165	0.9585
50.5371	11.2602	8.0491	-1.5461	-3.09	5.9047	8.1487	18.317	726.2509	-52.4699	284.1073	36.0644	642.3114	-0.0592	0.0182	-0.0073	-0.0462	0.0165	0.9585
50.55	14.7205	24.5238	-2.7049	-9.1181	8.4051	25.9229	20.5604	717.5273	-52.5099	280.3109	34.9862	631.2582	-0.0592	0.0182	-0.0073	-0.0462	0.0165	0.9585
50.5629	17.4109	49.1073	-4.0004	-18.1002	10.7489	52.5569	22.8466	709.0492	-52.5744	276.5774	33.9413	620.6235	-0.0592	0.0182	-0.0073	-0.0462	0.0165	0.9585
50.5757	18.0184	82.392	-5.2068	-30.2442	12.2072	88.7583	25.0493	699.8112	-52.5184	272.5328	32.8635	609.5846	-0.0592	0.0182	-0.0073	-0.0462	0.0165	0.9585
50.5886	15.1591	123.7214	-5.971	-45.2971	11.8959	133.899	26.985	688.4352	-52.1505	267.6614	31.6624	597.0107	-0.0592	0.0182	-0.0073	-0.0462	0.0165	0.9585
50.6014	8.4635	171.15	-5.8409	-62.5226	9.1844	185.9107	28.491	673.4805	-51.2736	261.4268	30.2424	581.7021	-0.0592	0.0182	-0.0073	-0.0462	0.0165	0.9585
